<svg width="49" height="19" viewBox="0 0 49 19" fill="none" xmlns="http://www.w3.org/2000/svg">
<path d="M0.64 15C0.554667 15 0.48 14.968 0.416 14.904C0.352 14.84 0.32 14.7653 0.32 14.68C0.32 14.6267 0.325333 14.568 0.336 14.504L4.304 4.152C4.34667 4.04533 4.40533 3.96 4.48 3.896C4.55467 3.832 4.66667 3.8 4.816 3.8H5.904C6.04267 3.8 6.14933 3.832 6.224 3.896C6.30933 3.96 6.37333 4.04533 6.416 4.152L10.368 14.504C10.3893 14.568 10.4 14.6267 10.4 14.68C10.4 14.7653 10.368 14.84 10.304 14.904C10.24 14.968 10.1653 15 10.08 15H9.264C9.136 15 9.04 14.968 8.976 14.904C8.92267 14.84 8.88533 14.7813 8.864 14.728L7.984 12.456H2.736L1.856 14.728C1.84533 14.7813 1.808 14.84 1.744 14.904C1.68 14.968 1.584 15 1.456 15H0.64ZM3.2 11.08H7.52L5.36 5.4L3.2 11.08ZM14.849 15.16C14.2623 15.16 13.7557 15.0587 13.329 14.856C12.9023 14.6427 12.5503 14.36 12.273 14.008C12.0063 13.6453 11.8037 13.2347 11.665 12.776C11.537 12.3173 11.4623 11.832 11.441 11.32C11.4303 11.1493 11.425 10.9893 11.425 10.84C11.425 10.6907 11.4303 10.5307 11.441 10.36C11.4623 9.85867 11.537 9.37867 11.665 8.92C11.8037 8.46133 12.0063 8.05067 12.273 7.688C12.5503 7.32533 12.9023 7.04267 13.329 6.84C13.7557 6.62667 14.2623 6.52 14.849 6.52C15.4783 6.52 16.001 6.632 16.417 6.856C16.833 7.08 17.1743 7.35733 17.441 7.688V4.008C17.441 3.90133 17.473 3.816 17.537 3.752C17.6117 3.67733 17.7023 3.64 17.809 3.64H18.577C18.6837 3.64 18.769 3.67733 18.833 3.752C18.9077 3.816 18.945 3.90133 18.945 4.008V14.632C18.945 14.7387 18.9077 14.8293 18.833 14.904C18.769 14.968 18.6837 15 18.577 15H17.857C17.7397 15 17.649 14.968 17.585 14.904C17.521 14.8293 17.489 14.7387 17.489 14.632V13.96C17.2223 14.3013 16.8757 14.5893 16.449 14.824C16.0223 15.048 15.489 15.16 14.849 15.16ZM15.185 13.864C15.7183 13.864 16.145 13.7413 16.465 13.496C16.785 13.2507 17.025 12.9413 17.185 12.568C17.345 12.184 17.4303 11.7947 17.441 11.4C17.4517 11.2293 17.457 11.0267 17.457 10.792C17.457 10.5467 17.4517 10.3387 17.441 10.168C17.4303 9.79467 17.3397 9.42667 17.169 9.064C17.009 8.70133 16.7637 8.40267 16.433 8.168C16.113 7.93333 15.697 7.816 15.185 7.816C14.641 7.816 14.209 7.93867 13.889 8.184C13.569 8.41867 13.3397 8.73333 13.201 9.128C13.0623 9.512 12.9823 9.928 12.961 10.376C12.9503 10.6853 12.9503 10.9947 12.961 11.304C12.9823 11.752 13.0623 12.1733 13.201 12.568C13.3397 12.952 13.569 13.2667 13.889 13.512C14.209 13.7467 14.641 13.864 15.185 13.864ZM21.6926 15C21.586 15 21.4953 14.968 21.4206 14.904C21.3566 14.8293 21.3246 14.7387 21.3246 14.632V7.048C21.3246 6.94133 21.3566 6.856 21.4206 6.792C21.4953 6.71733 21.586 6.68 21.6926 6.68H22.4126C22.5193 6.68 22.6046 6.71733 22.6686 6.792C22.7433 6.856 22.7806 6.94133 22.7806 7.048V7.608C23.026 7.27733 23.3353 7.016 23.7086 6.824C24.082 6.62133 24.53 6.52 25.0526 6.52C26.258 6.50933 27.1113 7 27.6126 7.992C27.858 7.544 28.2153 7.18667 28.6846 6.92C29.154 6.65333 29.6873 6.52 30.2846 6.52C30.8393 6.52 31.3406 6.648 31.7886 6.904C32.2473 7.16 32.6046 7.54933 32.8606 8.072C33.1273 8.584 33.2606 9.22933 33.2606 10.008V14.632C33.2606 14.7387 33.2233 14.8293 33.1486 14.904C33.0846 14.968 32.9993 15 32.8926 15H32.1406C32.034 15 31.9433 14.968 31.8686 14.904C31.8046 14.8293 31.7726 14.7387 31.7726 14.632V10.152C31.7726 9.55467 31.6873 9.08533 31.5166 8.744C31.346 8.40267 31.1166 8.16267 30.8286 8.024C30.5406 7.88533 30.226 7.816 29.8846 7.816C29.6073 7.816 29.3246 7.88533 29.0366 8.024C28.7486 8.16267 28.5086 8.40267 28.3166 8.744C28.1353 9.08533 28.0446 9.55467 28.0446 10.152V14.632C28.0446 14.7387 28.0073 14.8293 27.9326 14.904C27.8686 14.968 27.7833 15 27.6766 15H26.9246C26.818 15 26.7273 14.968 26.6526 14.904C26.5886 14.8293 26.5566 14.7387 26.5566 14.632V10.152C26.5566 9.55467 26.466 9.08533 26.2846 8.744C26.1033 8.40267 25.8686 8.16267 25.5806 8.024C25.2926 7.88533 24.9886 7.816 24.6686 7.816C24.3913 7.816 24.1086 7.88533 23.8206 8.024C23.5326 8.16267 23.2926 8.40267 23.1006 8.744C22.9193 9.08533 22.8286 9.54933 22.8286 10.136V14.632C22.8286 14.7387 22.7913 14.8293 22.7166 14.904C22.6526 14.968 22.5673 15 22.4606 15H21.6926ZM35.9114 15C35.8047 15 35.714 14.968 35.6394 14.904C35.5754 14.8293 35.5434 14.7387 35.5434 14.632V7.048C35.5434 6.94133 35.5754 6.856 35.6394 6.792C35.714 6.71733 35.8047 6.68 35.9114 6.68H36.6794C36.786 6.68 36.8714 6.71733 36.9354 6.792C36.9994 6.856 37.0314 6.94133 37.0314 7.048V14.632C37.0314 14.7387 36.9994 14.8293 36.9354 14.904C36.8714 14.968 36.786 15 36.6794 15H35.9114ZM35.7834 5.128C35.6767 5.128 35.586 5.096 35.5114 5.032C35.4474 4.95733 35.4154 4.86667 35.4154 4.76V3.896C35.4154 3.78933 35.4474 3.704 35.5114 3.64C35.586 3.56533 35.6767 3.528 35.7834 3.528H36.7914C36.898 3.528 36.9834 3.56533 37.0474 3.64C37.122 3.704 37.1594 3.78933 37.1594 3.896V4.76C37.1594 4.86667 37.122 4.95733 37.0474 5.032C36.9834 5.096 36.898 5.128 36.7914 5.128H35.7834ZM39.9426 15C39.836 15 39.7453 14.968 39.6706 14.904C39.6066 14.8293 39.5746 14.7387 39.5746 14.632V7.048C39.5746 6.94133 39.6066 6.856 39.6706 6.792C39.7453 6.71733 39.836 6.68 39.9426 6.68H40.6946C40.8013 6.68 40.8866 6.71733 40.9506 6.792C41.0253 6.856 41.0626 6.94133 41.0626 7.048V7.752C41.34 7.38933 41.6866 7.096 42.1026 6.872C42.5293 6.63733 43.0733 6.52 43.7346 6.52C44.428 6.52 45.0146 6.67467 45.4946 6.984C45.9853 7.28267 46.3533 7.704 46.5986 8.248C46.844 8.78133 46.9666 9.40533 46.9666 10.12V14.632C46.9666 14.7387 46.9346 14.8293 46.8706 14.904C46.8066 14.968 46.7213 15 46.6146 15H45.8146C45.708 15 45.6173 14.968 45.5426 14.904C45.4786 14.8293 45.4466 14.7387 45.4466 14.632V10.2C45.4466 9.45333 45.2653 8.872 44.9026 8.456C44.54 8.02933 44.0066 7.816 43.3026 7.816C42.6413 7.816 42.108 8.02933 41.7026 8.456C41.308 8.872 41.1106 9.45333 41.1106 10.2V14.632C41.1106 14.7387 41.0733 14.8293 40.9986 14.904C40.9346 14.968 40.8493 15 40.7426 15H39.9426Z" fill="#996C84"/>
</svg>
