<svg width="21" height="19" viewBox="0 0 21 19" fill="none" xmlns="http://www.w3.org/2000/svg">
<path d="M1.17344 0.770613C1.41429 0.591407 1.69102 0.5 1.96875 0.5C2.33987 0.5 2.70823 0.663695 2.98886 0.976189C3.27107 1.29045 3.4375 1.72716 3.4375 2.19231C3.4375 2.53825 3.34516 2.87273 3.17697 3.15303C3.00898 3.43299 2.77555 3.64249 2.51274 3.76371C2.25089 3.88448 1.96649 3.91495 1.6928 3.85432C1.41842 3.79355 1.15822 3.6418 0.948646 3.40843C0.738587 3.17451 0.590463 2.87035 0.530039 2.53208C0.469607 2.19377 0.50098 1.84358 0.618492 1.52767C0.735947 1.21191 0.93177 0.95043 1.17344 0.770613ZM1.17344 8.0783C1.41429 7.8991 1.69102 7.80769 1.96875 7.80769C2.33987 7.80769 2.70823 7.97139 2.98886 8.28388C3.27107 8.59814 3.4375 9.03485 3.4375 9.5C3.4375 9.84594 3.34516 10.1804 3.17697 10.4607C3.00898 10.7407 2.77555 10.9502 2.51274 11.0714C2.25089 11.1922 1.96649 11.2226 1.6928 11.162C1.41842 11.1012 1.15822 10.9495 0.948646 10.7161C0.738586 10.4822 0.590463 10.178 0.530039 9.83978C0.469607 9.50146 0.50098 9.15127 0.618492 8.83536C0.735947 8.5196 0.93177 8.25812 1.17344 8.0783ZM1.17344 15.386C1.41429 15.2068 1.69102 15.1154 1.96875 15.1154C2.33987 15.1154 2.70823 15.2791 2.98886 15.5916C3.27107 15.9058 3.4375 16.3425 3.4375 16.8077C3.4375 17.1536 3.34516 17.4881 3.17697 17.7684C3.00898 18.0484 2.77555 18.2579 2.51274 18.3791C2.25089 18.4999 1.96649 18.5303 1.6928 18.4697C1.41842 18.4089 1.15822 18.2572 0.948646 18.0238C0.738586 17.7899 0.590463 17.4857 0.530039 17.1475C0.469607 16.8092 0.50098 16.459 0.618492 16.143C0.735947 15.8273 0.931771 15.5658 1.17344 15.386ZM7.21875 15.8462H20.3438C20.3668 15.8462 20.4013 15.8559 20.4358 15.8943C20.4719 15.9344 20.5 15.9994 20.5 16.0769V17.5385C20.5 17.616 20.4719 17.6809 20.4358 17.7211C20.4013 17.7595 20.3668 17.7692 20.3438 17.7692H7.21875C7.19573 17.7692 7.16121 17.7595 7.12672 17.7211C7.09065 17.6809 7.0625 17.616 7.0625 17.5385V16.0769C7.0625 15.9994 7.09065 15.9344 7.12672 15.8943C7.16121 15.8559 7.19573 15.8462 7.21875 15.8462ZM7.21875 1.23077H20.3438C20.3668 1.23077 20.4013 1.24048 20.4358 1.27888C20.4719 1.31905 20.5 1.38401 20.5 1.46154V2.92308C20.5 3.00061 20.4719 3.06556 20.4358 3.10573C20.4013 3.14413 20.3668 3.15385 20.3438 3.15385H7.21875C7.19573 3.15385 7.16121 3.14413 7.12672 3.10573C7.09065 3.06556 7.0625 3.0006 7.0625 2.92308V1.46154C7.0625 1.38401 7.09065 1.31906 7.12672 1.27888C7.16121 1.24048 7.19573 1.23077 7.21875 1.23077ZM7.21875 8.53846H20.3438C20.3668 8.53846 20.4013 8.54817 20.4358 8.58657C20.4719 8.62675 20.5 8.6917 20.5 8.76923V10.2308C20.5 10.3083 20.4719 10.3733 20.4358 10.4134C20.4013 10.4518 20.3668 10.4615 20.3438 10.4615H7.21875C7.19573 10.4615 7.16121 10.4518 7.12672 10.4134C7.09065 10.3733 7.0625 10.3083 7.0625 10.2308V8.76923C7.0625 8.6917 7.09065 8.62675 7.12672 8.58657C7.16121 8.54817 7.19573 8.53846 7.21875 8.53846Z" fill="#88305F" stroke="#88305F"/>
</svg>
