<svg width="21" height="19" viewBox="0 0 21 19" fill="none" xmlns="http://www.w3.org/2000/svg">
<path d="M1.96875 0C1.57937 0 1.19873 0.128577 0.874972 0.36947C0.551213 0.610364 0.298873 0.952756 0.149863 1.35335C0.000853032 1.75394 -0.0381348 2.19474 0.0378299 2.62001C0.113795 3.04527 0.3013 3.4359 0.576634 3.7425C0.851969 4.0491 1.20277 4.2579 1.58467 4.34249C1.96657 4.42708 2.36242 4.38367 2.72216 4.21774C3.0819 4.05181 3.38938 3.77081 3.60571 3.41029C3.82204 3.04977 3.9375 2.6259 3.9375 2.19231C3.9375 1.61087 3.73008 1.05325 3.36087 0.642112C2.99166 0.230975 2.4909 0 1.96875 0ZM1.96875 7.30769C1.57937 7.30769 1.19873 7.43627 0.874972 7.67716C0.551213 7.91806 0.298873 8.26045 0.149863 8.66104C0.000853032 9.06163 -0.0381348 9.50243 0.0378299 9.9277C0.113795 10.353 0.3013 10.7436 0.576634 11.0502C0.851969 11.3568 1.20277 11.5656 1.58467 11.6502C1.96657 11.7348 2.36242 11.6914 2.72216 11.5254C3.0819 11.3595 3.38938 11.0785 3.60571 10.718C3.82204 10.3575 3.9375 9.9336 3.9375 9.5C3.9375 8.91856 3.73008 8.36094 3.36087 7.9498C2.99166 7.53867 2.4909 7.30769 1.96875 7.30769ZM1.96875 14.6154C1.57937 14.6154 1.19873 14.744 0.874972 14.9849C0.551213 15.2257 0.298873 15.5681 0.149863 15.9687C0.000853032 16.3693 -0.0381348 16.8101 0.0378299 17.2354C0.113795 17.6607 0.3013 18.0513 0.576634 18.3579C0.851969 18.6645 1.20277 18.8733 1.58467 18.9579C1.96657 19.0425 2.36242 18.999 2.72216 18.8331C3.0819 18.6672 3.38938 18.3862 3.60571 18.0257C3.82204 17.6651 3.9375 17.2413 3.9375 16.8077C3.9375 16.2263 3.73008 15.6686 3.36087 15.2575C2.99166 14.8464 2.4909 14.6154 1.96875 14.6154ZM20.3438 15.3462H7.21875C7.0447 15.3462 6.87778 15.4231 6.75471 15.5602C6.63164 15.6972 6.5625 15.8831 6.5625 16.0769V17.5385C6.5625 17.7323 6.63164 17.9181 6.75471 18.0552C6.87778 18.1922 7.0447 18.2692 7.21875 18.2692H20.3438C20.5178 18.2692 20.6847 18.1922 20.8078 18.0552C20.9309 17.9181 21 17.7323 21 17.5385V16.0769C21 15.8831 20.9309 15.6972 20.8078 15.5602C20.6847 15.4231 20.5178 15.3462 20.3438 15.3462ZM20.3438 0.730769H7.21875C7.0447 0.730769 6.87778 0.807761 6.75471 0.944807C6.63164 1.08185 6.5625 1.26773 6.5625 1.46154V2.92308C6.5625 3.11689 6.63164 3.30276 6.75471 3.43981C6.87778 3.57685 7.0447 3.65385 7.21875 3.65385H20.3438C20.5178 3.65385 20.6847 3.57685 20.8078 3.43981C20.9309 3.30276 21 3.11689 21 2.92308V1.46154C21 1.26773 20.9309 1.08185 20.8078 0.944807C20.6847 0.807761 20.5178 0.730769 20.3438 0.730769V0.730769ZM20.3438 8.03846H7.21875C7.0447 8.03846 6.87778 8.11545 6.75471 8.2525C6.63164 8.38954 6.5625 8.57542 6.5625 8.76923V10.2308C6.5625 10.4246 6.63164 10.6105 6.75471 10.7475C6.87778 10.8845 7.0447 10.9615 7.21875 10.9615H20.3438C20.5178 10.9615 20.6847 10.8845 20.8078 10.7475C20.9309 10.6105 21 10.4246 21 10.2308V8.76923C21 8.57542 20.9309 8.38954 20.8078 8.2525C20.6847 8.11545 20.5178 8.03846 20.3438 8.03846Z" fill="#818181"/>
</svg>
