<svg width="20" height="21" viewBox="0 0 20 21" fill="none" xmlns="http://www.w3.org/2000/svg">
<path d="M14.6168 1.79382C14.8552 1.54215 15.1383 1.34251 15.4498 1.20631C15.7613 1.0701 16.0952 1 16.4324 1C16.7696 1 17.1035 1.0701 17.415 1.20631C17.7265 1.34251 18.0095 1.54215 18.248 1.79382C18.4864 2.04549 18.6755 2.34426 18.8046 2.67309C18.9336 3.00191 19 3.35434 19 3.71026C19 4.06617 18.9336 4.4186 18.8046 4.74743C18.6755 5.07625 18.4864 5.37503 18.248 5.6267L5.99283 18.5627L1 20L2.36168 14.7298L14.6168 1.79382Z" stroke="#6D6D6D" stroke-width="2" stroke-linecap="round" stroke-linejoin="round"/>
</svg>
